<svg xmlns="http://www.w3.org/2000/svg" viewBox="0 0 384 512" fill="white">
  <path d="M318.7 268c-1.3-67 54.8-99.3 57.3-100.8-31.3-45.7-79.9-52-97-52.8-41.3-4.2-80.6 24.3-101.5 24.3s-52.8-23.7-86.7-23.1c-44.7.6-86.1 26.1-109.1 66.2-46.6 80.8-12 200.2 33.5 265.7 22.3 32.5 48.9 69 83.7 67.5 33.1-1.3 45.5-21.6 85.2-21.6s50.3 21.6 85.3 21c35.3-.6 57.6-33 79.2-65.7 25-36.5 35.3-71.9 35.8-73.7-.7-.3-68.6-26.3-69.3-104.2zm-64.7-197.1c17.9-21.7 30-51.9 26.7-81.6-25.8 1-57.1 17.2-75.5 38.9-16.6 19.3-31.2 50.2-27.2 79.4 28.7 2.2 58-14.6 76-36.7z"></path>
</svg>
