<svg xmlns="http://www.w3.org/2000/svg" viewBox="0 0 533.5 544.3">
  <path fill="#4285F4" d="M533.5 278.4c0-17.3-1.5-34-4.3-50.2H272v95.1h146.9c-6.3 34-25.1 62.8-53.5 82v68.1h86.6c50.7-46.7 81.5-115.5 81.5-195z"></path>
  <path fill="#34A853" d="M272 544.3c72.9 0 134.1-24.2 178.7-65.8l-86.6-68.1c-24.1 16.2-54.9 25.6-92.1 25.6-70.8 0-130.8-47.9-152.3-112.1H32.4v70.8C76.6 477 167.8 544.3 272 544.3z"></path>
  <path fill="#FBBC05" d="M119.7 323.9c-10.1-30-10.1-62.5 0-92.5V160.6H32.4c-32.2 63.9-32.2 139.3 0 203.1l87.3-70z"></path>
  <path fill="#EA4335" d="M272 107.7c39.6-.6 77.5 14.2 106.4 41.5l79.5-79.5C417.8 24.2 356.6 0 272 0 167.8 0 76.6 67.3 32.4 160.6l87.3 70c21.5-64.2 81.5-112.1 152.3-112.9z"></path>
</svg>
